<svg width="331" height="331" xmlns="http://www.w3.org/2000/svg">

 <g id="imagebot_2">
  <g transform="translate(-19.996 -19.997) matrix(1 0 0 1 -102.114 -509.69)" id="imagebot_18">
   <path d="M 221.11 529.69 C 253.727 529.69 280.11 556.073 280.11 588.69 L 280.11 628.69 L 280.11 683.69 L 280.11 687.69 L 276.11 687.69 L 221.11 687.69 L 181.11 687.69 C 148.493 687.69 122.11 661.307 122.11 628.69 L 122.11 588.69 C 122.11 556.073 148.493 529.69 181.11 529.69 L 221.11 529.69 Z M 221.11 537.69 L 181.11 537.69 C 152.787 537.69 130.11 560.367 130.11 588.69 L 130.11 628.69 C 130.11 657.013 152.787 679.69 181.11 679.69 L 221.11 679.69 L 272.11 679.69 L 272.11 628.69 L 272.11 588.69 C 272.11 560.367 249.433 537.69 221.11 537.69 Z" fill="#e5e5e5" id="imagebot_22"/>
   <path d="M 276.11 683.69 L 276.11 628.69 L 276.11 588.69 C 276.11 558.22 251.58 533.69 221.11 533.69 L 181.11 533.69 C 150.64 533.69 126.11 558.22 126.11 588.69 L 126.11 628.69 C 126.11 659.16 150.64 683.69 181.11 683.69 L 221.11 683.69 L 276.11 683.69 Z" fill="#e5e5e5" id="imagebot_21"/>
   <path d="M 276.11 652.57 L 276.11 683.695 L 221.11 683.695 L 181.11 683.695 C 150.64 683.695 126.11 659.165 126.11 628.695 L 126.11 590.226 C 126.63 591.32 127.121 592.427 127.735 593.507 C 128.705 595.214 129.787 596.908 130.985 598.57 S 133.508 601.871 134.922 603.476 C 136.337 605.081 137.864 606.627 139.485 608.163 S 142.823 611.207 144.641 612.663 S 148.356 615.548 150.36 616.913 C 152.364 618.278 154.462 619.589 156.641 620.851 C 158.821 622.112 161.078 623.33 163.422 624.476 C 165.767 625.622 168.204 626.707 170.704 627.726 S 175.778 629.689 178.422 630.57 C 181.067 631.45 183.769 632.246 186.547 632.976 L 244.922 648.32 C 247.701 649.05 250.471 649.686 253.235 650.226 C 255.999 650.767 258.751 651.214 261.485 651.57 C 264.219 651.926 266.923 652.175 269.61 652.351 C 271.802 652.495 273.959 652.543 276.11 652.57 L 276.11 652.57 Z" fill="#e5e5e5" id="imagebot_19"/>
  </g>
  <g transform="translate(-19.996 -19.997) matrix(1 0 0 1 -117.828 -514.743)" id="imagebot_13">
   <path d="M 369.83 534.74 C 337.213 534.74 310.83 561.123 310.83 593.74 L 310.83 633.74 L 310.83 688.74 L 310.83 692.74 L 314.83 692.74 L 369.83 692.74 L 409.83 692.74 C 442.447 692.74 468.83 666.357 468.83 633.74 L 468.83 593.74 C 468.83 561.123 442.447 534.74 409.83 534.74 L 369.83 534.74 Z M 369.83 542.74 L 409.83 542.74 C 438.153 542.74 460.83 565.417 460.83 593.74 L 460.83 633.74 C 460.83 662.063 438.153 684.74 409.83 684.74 L 369.83 684.74 L 318.83 684.74 L 318.83 633.74 L 318.83 593.74 C 318.83 565.417 341.507 542.74 369.83 542.74 Z" fill="#cccccc" id="imagebot_17"/>
   <path d="M 314.83 688.74 L 314.83 633.74 L 314.83 593.74 C 314.83 563.27 339.36 538.74 369.83 538.74 L 409.83 538.74 C 440.3 538.74 464.83 563.27 464.83 593.74 L 464.83 633.74 C 464.83 664.21 440.3 688.74 409.83 688.74 L 369.83 688.74 L 314.83 688.74 Z" fill="#cccccc" id="imagebot_16"/>
   <path d="M 314.83 657.62 L 314.83 688.745 L 369.83 688.745 L 409.83 688.745 C 440.3 688.745 464.83 664.215 464.83 633.745 L 464.83 595.276 C 464.31 596.37 463.819 597.477 463.205 598.557 C 462.235 600.264 461.153 601.958 459.955 603.62 S 457.432 606.921 456.017 608.526 C 454.603 610.131 453.076 611.677 451.455 613.213 S 448.116 616.257 446.299 617.713 S 442.584 620.598 440.58 621.963 C 438.576 623.328 436.478 624.639 434.299 625.901 C 432.119 627.162 429.862 628.38 427.518 629.526 C 425.173 630.672 422.736 631.757 420.236 632.776 S 415.162 634.739 412.518 635.62 C 409.873 636.5 407.171 637.296 404.393 638.026 L 346.018 653.37 C 343.239 654.1 340.469 654.736 337.705 655.276 C 334.941 655.817 332.189 656.264 329.455 656.62 C 326.721 656.976 324.017 657.225 321.33 657.401 C 319.138 657.545 316.981 657.593 314.83 657.62 L 314.83 657.62 Z" fill="#cccccc" id="imagebot_14"/>
  </g>
  <g transform="translate(-19.996 -19.997) matrix(1 0 0 1 -97.567 -503.253)" id="imagebot_8">
   <path d="M 216.57 854.25 C 249.187 854.25 275.57 827.867 275.57 795.25 L 275.57 755.25 L 275.57 700.25 L 275.57 696.25 L 271.57 696.25 L 216.57 696.25 L 176.57 696.25 C 143.953 696.25 117.57 722.633 117.57 755.25 L 117.57 795.25 C 117.57 827.867 143.953 854.25 176.57 854.25 L 216.57 854.25 Z M 216.57 846.25 L 176.57 846.25 C 148.247 846.25 125.57 823.573 125.57 795.25 L 125.57 755.25 C 125.57 726.927 148.247 704.25 176.57 704.25 L 216.57 704.25 L 267.57 704.25 L 267.57 755.25 L 267.57 795.25 C 267.57 823.573 244.893 846.25 216.57 846.25 Z" fill="#cccccc" id="imagebot_12"/>
   <path d="M 271.57 700.25 L 271.57 755.25 L 271.57 795.25 C 271.57 825.72 247.04 850.25 216.57 850.25 L 176.57 850.25 C 146.1 850.25 121.57 825.72 121.57 795.25 L 121.57 755.25 C 121.57 724.78 146.1 700.25 176.57 700.25 L 216.57 700.25 L 271.57 700.25 Z" fill="#cccccc" id="imagebot_11"/>
   <path d="M 266.16 818.94 C 265.753 819.794 265.39 820.674 264.941 821.503 C 264.096 823.061 263.178 824.571 262.191 826.034 C 261.205 827.496 260.154 828.895 259.035 830.253 C 257.916 831.61 256.746 832.916 255.504 834.159 C 254.261 835.401 252.955 836.602 251.598 837.721 S 248.81 839.891 247.348 840.877 C 245.885 841.864 244.375 842.783 242.816 843.627 C 241.258 844.472 239.65 845.246 238.004 845.94 C 236.358 846.634 234.666 847.25 232.941 847.784 C 231.217 848.318 229.485 848.762 227.691 849.128 C 225.898 849.493 224.045 849.784 222.191 849.971 S 218.471 850.253 216.566 850.253 L 176.566 850.253 C 146.096 850.253 121.566 825.722 121.566 795.253 L 121.566 756.784 C 122.086 757.878 122.577 758.985 123.191 760.065 C 124.162 761.771 125.244 763.465 126.441 765.127 S 128.964 768.428 130.379 770.033 C 131.794 771.639 133.32 773.184 134.941 774.721 S 138.28 777.764 140.098 779.221 S 143.813 782.106 145.816 783.471 C 147.82 784.836 149.918 786.147 152.098 787.408 C 154.277 788.67 156.534 789.887 158.879 791.033 C 161.223 792.18 163.66 793.264 166.16 794.283 S 171.234 796.247 173.879 797.127 C 176.523 798.008 179.225 798.803 182.004 799.533 L 240.379 814.877 C 243.157 815.607 245.927 816.243 248.691 816.784 C 251.456 817.324 254.208 817.772 256.941 818.127 C 259.675 818.483 262.379 818.733 265.066 818.909 C 265.435 818.933 265.793 818.921 266.16 818.94 L 266.16 818.94 Z" fill="#cccccc" id="imagebot_9"/>
  </g>
  <g transform="translate(-19.996 -19.997) matrix(1 0 0 1 -114.831 -502.096)" id="imagebot_3">
   <path d="M 366.83 853.1 C 334.213 853.1 307.83 826.717 307.83 794.1 L 307.83 754.1 L 307.83 699.1 L 307.83 695.1 L 311.83 695.1 L 366.83 695.1 L 406.83 695.1 C 439.447 695.1 465.83 721.483 465.83 754.1 L 465.83 794.1 C 465.83 826.717 439.447 853.1 406.83 853.1 L 366.83 853.1 Z M 366.83 845.1 L 406.83 845.1 C 435.153 845.1 457.83 822.423 457.83 794.1 L 457.83 754.1 C 457.83 725.777 435.153 703.1 406.83 703.1 L 366.83 703.1 L 315.83 703.1 L 315.83 754.1 L 315.83 794.1 C 315.83 822.423 338.507 845.1 366.83 845.1 Z" fill="#e5e5e5" id="imagebot_7"/>
   <path d="M 311.83 699.1 L 311.83 754.1 L 311.83 794.1 C 311.83 824.57 336.36 849.1 366.83 849.1 L 406.83 849.1 C 437.3 849.1 461.83 824.57 461.83 794.1 L 461.83 754.1 C 461.83 723.63 437.3 699.1 406.83 699.1 L 366.83 699.1 L 311.83 699.1 Z" fill="#e5e5e5" id="imagebot_6"/>
   <path d="M 317.24 817.78 C 317.647 818.634 318.01 819.514 318.459 820.343 C 319.304 821.901 320.222 823.411 321.209 824.874 C 322.195 826.336 323.246 827.735 324.365 829.093 C 325.484 830.45 326.654 831.756 327.896 832.999 C 329.139 834.241 330.445 835.442 331.802 836.561 S 334.59 838.731 336.052 839.717 C 337.515 840.704 339.025 841.623 340.584 842.467 C 342.142 843.312 343.75 844.086 345.396 844.78 C 347.042 845.474 348.734 846.09 350.459 846.624 C 352.183 847.158 353.915 847.602 355.709 847.968 C 357.502 848.333 359.355 848.624 361.209 848.811 S 364.929 849.093 366.834 849.093 L 406.834 849.093 C 437.304 849.093 461.834 824.563 461.834 794.093 L 461.834 755.624 C 461.314 756.718 460.823 757.825 460.209 758.905 C 459.238 760.612 458.156 762.305 456.959 763.967 S 454.436 767.268 453.021 768.873 C 451.606 770.479 450.08 772.024 448.459 773.561 S 445.12 776.604 443.302 778.061 S 439.587 780.946 437.584 782.311 C 435.58 783.676 433.482 784.987 431.302 786.248 C 429.123 787.51 426.866 788.727 424.521 789.873 C 422.176 791.02 419.74 792.104 417.24 793.123 S 412.165 795.087 409.521 795.967 C 406.877 796.848 404.175 797.643 401.396 798.373 L 343.021 813.717 C 340.243 814.448 337.473 815.083 334.709 815.624 C 331.944 816.164 329.192 816.612 326.459 816.967 C 323.725 817.323 321.021 817.573 318.334 817.749 C 317.965 817.773 317.607 817.761 317.24 817.78 L 317.24 817.78 Z" fill="#e5e5e5" id="imagebot_4"/>
  </g>
  <title>imagebot_2</title>
 </g>
 <metadata>image/svg+xmlOpenclipartJelly buttons - square with rounded corners2012-04-08T08:29:23Recolourable button with one "square" corner and 3 rounded cornershttps://openclipart.org/detail/169422/jelly-buttons---square-with-rounded-corners-by-seventyeightistseventyeightistbuttonsjellysquareweb</metadata>
</svg>